<svg id="svg" version="1.1" xmlns="http://www.w3.org/2000/svg" xmlns:xlink="http://www.w3.org/1999/xlink" width="400" height="400" viewBox="0, 0, 400,400"><g id="svgg"><path id="path0" d="M186.400 48.400 C 186.400 48.620,185.601 48.800,184.624 48.800 C 183.647 48.800,182.736 48.980,182.600 49.200 C 182.464 49.420,182.003 49.600,181.576 49.600 C 181.149 49.600,180.800 49.780,180.800 50.000 C 180.800 50.220,180.440 50.400,180.000 50.400 C 179.560 50.400,179.200 50.580,179.200 50.800 C 179.200 51.020,178.917 51.200,178.571 51.200 C 177.826 51.200,176.731 52.197,177.086 52.552 C 177.222 52.689,177.023 52.800,176.643 52.800 C 176.263 52.800,176.064 52.980,176.200 53.200 C 176.336 53.420,176.167 53.600,175.824 53.600 C 175.481 53.600,175.200 53.775,175.200 53.989 C 175.200 54.204,174.390 55.189,173.400 56.179 C 172.410 57.169,171.600 58.242,171.600 58.563 C 171.600 58.883,171.240 59.260,170.800 59.400 C 170.245 59.576,170.000 60.005,170.000 60.803 C 170.000 61.436,169.820 62.064,169.600 62.200 C 169.380 62.336,169.200 62.887,169.200 63.424 C 169.200 63.961,169.020 64.400,168.800 64.400 C 168.545 64.400,168.400 67.800,168.400 73.800 C 168.400 79.800,168.255 83.200,168.000 83.200 C 167.780 83.200,167.600 83.920,167.600 84.800 C 167.600 85.680,167.420 86.400,167.200 86.400 C 166.980 86.400,166.800 86.900,166.800 87.512 C 166.800 88.165,166.470 88.861,166.000 89.200 C 165.560 89.517,165.200 89.999,165.200 90.270 C 165.200 90.542,164.750 91.214,164.200 91.764 C 163.650 92.314,163.200 92.668,163.200 92.551 C 163.200 92.434,162.734 92.892,162.164 93.569 C 161.595 94.246,160.785 94.800,160.364 94.800 C 159.944 94.800,159.600 95.049,159.600 95.353 C 159.600 95.933,158.427 96.385,156.900 96.395 C 156.405 96.398,156.000 96.580,156.000 96.800 C 156.000 97.042,154.275 97.200,151.624 97.200 C 149.137 97.200,147.140 97.027,147.000 96.800 C 146.864 96.580,146.313 96.400,145.776 96.400 C 145.239 96.400,144.800 96.208,144.800 95.973 C 144.800 95.728,144.459 95.654,144.000 95.800 C 143.432 95.980,143.200 95.872,143.200 95.427 C 143.200 95.063,142.859 94.800,142.387 94.800 C 141.941 94.800,141.471 94.530,141.345 94.200 C 141.218 93.870,140.864 93.600,140.557 93.600 C 140.251 93.600,140.045 93.375,140.100 93.100 C 140.155 92.825,139.975 92.645,139.700 92.700 C 139.425 92.755,139.245 92.665,139.300 92.500 C 139.437 92.090,131.310 84.000,130.760 84.000 C 130.519 84.000,129.817 83.460,129.200 82.800 C 128.583 82.140,127.791 81.600,127.440 81.600 C 127.088 81.600,126.800 81.420,126.800 81.200 C 126.800 80.980,126.440 80.800,126.000 80.800 C 125.560 80.800,125.200 80.620,125.200 80.400 C 125.200 80.180,124.930 80.000,124.600 80.000 C 124.270 80.000,124.000 79.820,124.000 79.600 C 124.000 79.380,123.111 79.200,122.024 79.200 C 120.937 79.200,119.936 79.020,119.800 78.800 C 119.664 78.580,118.393 78.400,116.976 78.400 C 115.525 78.400,114.400 78.575,114.400 78.800 C 114.400 79.020,113.601 79.200,112.624 79.200 C 111.647 79.200,110.736 79.380,110.600 79.600 C 110.464 79.820,110.003 80.000,109.576 80.000 C 109.149 80.000,108.800 80.180,108.800 80.400 C 108.800 80.620,108.530 80.800,108.200 80.800 C 107.870 80.800,107.600 80.980,107.600 81.200 C 107.600 81.420,107.312 81.600,106.960 81.600 C 106.609 81.600,105.817 82.140,105.200 82.800 C 104.583 83.460,103.877 84.000,103.631 84.000 C 103.000 84.000,82.400 104.673,82.400 105.305 C 82.400 105.590,82.040 106.083,81.600 106.400 C 81.160 106.717,80.800 107.297,80.800 107.688 C 80.800 108.080,80.620 108.400,80.400 108.400 C 80.180 108.400,80.000 108.760,80.000 109.200 C 80.000 109.640,79.820 110.000,79.600 110.000 C 79.380 110.000,79.200 110.630,79.200 111.400 C 79.200 112.170,79.034 112.800,78.832 112.800 C 78.630 112.800,78.464 114.600,78.464 116.800 C 78.464 119.000,78.630 120.800,78.832 120.800 C 79.034 120.800,79.200 121.250,79.200 121.800 C 79.200 122.350,79.380 122.800,79.600 122.800 C 79.820 122.800,80.000 123.340,80.000 124.000 C 80.000 124.660,80.180 125.200,80.400 125.200 C 80.620 125.200,80.800 125.520,80.800 125.912 C 80.800 126.303,81.160 126.883,81.600 127.200 C 82.040 127.517,82.400 127.995,82.400 128.261 C 82.400 128.527,84.902 131.278,87.959 134.373 C 91.017 137.468,93.453 140.000,93.372 140.000 C 93.292 140.000,93.848 140.622,94.608 141.381 C 95.470 142.244,95.900 142.995,95.752 143.381 C 95.621 143.722,95.714 144.000,95.957 144.000 C 96.201 144.000,96.400 144.540,96.400 145.200 C 96.400 145.860,96.580 146.400,96.800 146.400 C 97.020 146.400,97.200 147.285,97.200 148.367 C 97.200 149.576,97.393 150.404,97.700 150.517 C 98.100 150.663,98.100 150.806,97.700 151.230 C 97.425 151.522,97.200 152.714,97.200 153.880 C 97.200 155.046,97.020 156.000,96.800 156.000 C 96.580 156.000,96.398 156.405,96.395 156.900 C 96.386 158.258,95.954 159.600,95.525 159.600 C 94.935 159.600,94.000 160.673,94.000 161.349 C 94.000 161.682,93.641 162.206,93.203 162.513 C 92.764 162.820,92.504 163.171,92.626 163.292 C 92.747 163.413,92.296 163.756,91.623 164.054 C 90.950 164.352,90.400 164.731,90.400 164.898 C 90.400 165.064,90.040 165.200,89.600 165.200 C 89.160 165.200,88.800 165.380,88.800 165.600 C 88.800 165.820,88.440 166.000,88.000 166.000 C 87.560 166.000,87.200 166.180,87.200 166.400 C 87.200 166.620,86.480 166.800,85.600 166.800 C 84.720 166.800,84.000 166.980,84.000 167.200 C 84.000 167.456,80.467 167.600,74.200 167.600 C 67.933 167.600,64.400 167.744,64.400 168.000 C 64.400 168.220,63.860 168.400,63.200 168.400 C 62.540 168.400,62.000 168.580,62.000 168.800 C 62.000 169.020,61.640 169.200,61.200 169.200 C 60.760 169.200,60.400 169.380,60.400 169.600 C 60.400 169.820,60.130 170.000,59.800 170.000 C 59.470 170.000,59.200 170.180,59.200 170.400 C 59.200 170.620,58.920 170.800,58.578 170.800 C 58.236 170.800,56.906 171.870,55.622 173.178 C 54.339 174.485,53.179 175.445,53.044 175.311 C 52.910 175.177,52.800 175.377,52.800 175.757 C 52.800 176.137,52.620 176.336,52.400 176.200 C 52.180 176.064,52.000 176.323,52.000 176.776 C 52.000 177.229,51.853 177.600,51.674 177.600 C 51.215 177.600,49.600 180.725,49.600 181.614 C 49.600 182.020,49.420 182.464,49.200 182.600 C 48.980 182.736,48.800 183.456,48.800 184.200 C 48.800 184.944,48.620 185.664,48.400 185.800 C 48.146 185.957,48.000 191.130,48.000 200.000 C 48.000 208.870,48.146 214.043,48.400 214.200 C 48.620 214.336,48.800 215.056,48.800 215.800 C 48.800 216.544,48.980 217.264,49.200 217.400 C 49.420 217.536,49.600 217.980,49.600 218.386 C 49.600 219.275,51.215 222.400,51.674 222.400 C 51.853 222.400,52.000 222.771,52.000 223.224 C 52.000 223.677,52.180 223.936,52.400 223.800 C 52.620 223.664,52.800 223.863,52.800 224.243 C 52.800 224.623,52.911 224.823,53.046 224.687 C 53.181 224.552,54.160 225.332,55.220 226.421 C 56.280 227.509,57.390 228.400,57.686 228.400 C 57.981 228.400,58.483 228.760,58.800 229.200 C 59.117 229.640,59.607 230.000,59.888 230.000 C 60.170 230.000,60.400 230.180,60.400 230.400 C 60.400 230.620,60.760 230.800,61.200 230.800 C 61.640 230.800,62.000 230.980,62.000 231.200 C 62.000 231.420,62.709 231.600,63.576 231.600 C 64.443 231.600,65.264 231.780,65.400 232.000 C 65.553 232.248,69.137 232.400,74.824 232.400 C 80.675 232.400,84.000 232.545,84.000 232.800 C 84.000 233.020,84.720 233.200,85.600 233.200 C 86.480 233.200,87.200 233.380,87.200 233.600 C 87.200 233.820,87.560 234.000,88.000 234.000 C 88.440 234.000,88.800 234.180,88.800 234.400 C 88.800 234.620,89.160 234.800,89.600 234.800 C 90.040 234.800,90.400 234.936,90.400 235.102 C 90.400 235.269,90.950 235.648,91.623 235.946 C 92.296 236.244,92.747 236.587,92.626 236.708 C 92.504 236.829,92.764 237.180,93.203 237.487 C 93.641 237.794,94.000 238.318,94.000 238.651 C 94.000 239.327,94.935 240.400,95.525 240.400 C 95.954 240.400,96.386 241.742,96.395 243.100 C 96.398 243.595,96.580 244.000,96.800 244.000 C 97.020 244.000,97.200 244.954,97.200 246.120 C 97.200 247.286,97.425 248.478,97.700 248.770 C 98.100 249.194,98.100 249.337,97.700 249.483 C 97.393 249.596,97.200 250.424,97.200 251.633 C 97.200 252.715,97.020 253.600,96.800 253.600 C 96.580 253.600,96.400 254.140,96.400 254.800 C 96.400 255.460,96.201 256.000,95.957 256.000 C 95.714 256.000,95.621 256.278,95.752 256.619 C 95.900 257.005,95.470 257.756,94.608 258.619 C 93.848 259.378,93.292 260.000,93.372 260.000 C 93.453 260.000,91.017 262.532,87.959 265.627 C 84.902 268.722,82.400 271.473,82.400 271.739 C 82.400 272.005,82.040 272.483,81.600 272.800 C 81.160 273.117,80.800 273.697,80.800 274.088 C 80.800 274.480,80.620 274.800,80.400 274.800 C 80.180 274.800,80.000 275.340,80.000 276.000 C 80.000 276.660,79.820 277.200,79.600 277.200 C 79.380 277.200,79.200 277.650,79.200 278.200 C 79.200 278.750,79.034 279.200,78.832 279.200 C 78.630 279.200,78.464 281.000,78.464 283.200 C 78.464 285.400,78.630 287.200,78.832 287.200 C 79.034 287.200,79.200 287.830,79.200 288.600 C 79.200 289.370,79.380 290.000,79.600 290.000 C 79.820 290.000,80.000 290.360,80.000 290.800 C 80.000 291.240,80.180 291.600,80.400 291.600 C 80.620 291.600,80.800 291.920,80.800 292.312 C 80.800 292.703,81.160 293.283,81.600 293.600 C 82.040 293.917,82.400 294.410,82.400 294.695 C 82.400 295.373,104.627 317.600,105.305 317.600 C 105.590 317.600,106.083 317.960,106.400 318.400 C 106.717 318.840,107.297 319.200,107.688 319.200 C 108.080 319.200,108.400 319.380,108.400 319.600 C 108.400 319.820,108.839 320.000,109.376 320.000 C 109.913 320.000,110.464 320.180,110.600 320.400 C 110.736 320.620,111.456 320.800,112.200 320.800 C 112.944 320.800,113.664 320.980,113.800 321.200 C 113.936 321.420,115.286 321.600,116.800 321.600 C 118.314 321.600,119.664 321.420,119.800 321.200 C 119.936 320.980,120.937 320.800,122.024 320.800 C 123.111 320.800,124.000 320.620,124.000 320.400 C 124.000 320.180,124.270 320.000,124.600 320.000 C 124.930 320.000,125.200 319.820,125.200 319.600 C 125.200 319.380,125.560 319.200,126.000 319.200 C 126.440 319.200,126.800 319.020,126.800 318.800 C 126.800 318.580,127.073 318.400,127.406 318.400 C 127.739 318.400,129.425 316.960,131.152 315.200 C 132.879 313.440,134.485 312.000,134.720 312.000 C 135.279 312.000,139.430 307.944,139.300 307.524 C 139.245 307.346,139.425 307.245,139.700 307.300 C 139.975 307.355,140.155 307.175,140.100 306.900 C 140.045 306.625,140.251 306.400,140.557 306.400 C 140.864 306.400,141.218 306.130,141.345 305.800 C 141.471 305.470,141.941 305.200,142.387 305.200 C 142.859 305.200,143.200 304.937,143.200 304.573 C 143.200 304.128,143.432 304.020,144.000 304.200 C 144.459 304.346,144.800 304.272,144.800 304.027 C 144.800 303.792,145.239 303.600,145.776 303.600 C 146.313 303.600,146.864 303.420,147.000 303.200 C 147.309 302.700,155.070 302.665,155.377 303.163 C 155.500 303.362,156.501 303.649,157.600 303.800 C 158.700 303.951,159.600 304.251,159.600 304.466 C 159.600 305.063,160.668 306.000,161.349 306.000 C 161.682 306.000,162.235 306.400,162.577 306.889 C 162.920 307.378,163.200 307.656,163.200 307.507 C 163.200 307.358,163.650 307.686,164.200 308.236 C 164.750 308.786,165.200 309.498,165.200 309.818 C 165.200 310.138,165.380 310.400,165.600 310.400 C 165.820 310.400,166.000 310.760,166.000 311.200 C 166.000 311.640,166.180 312.000,166.400 312.000 C 166.620 312.000,166.800 312.540,166.800 313.200 C 166.800 313.860,166.980 314.400,167.200 314.400 C 167.454 314.400,167.600 317.533,167.600 323.000 C 167.600 328.467,167.746 331.600,168.000 331.600 C 168.220 331.600,168.400 332.579,168.400 333.776 C 168.400 334.973,168.580 336.064,168.800 336.200 C 169.020 336.336,169.200 336.977,169.200 337.624 C 169.200 338.271,169.380 338.800,169.600 338.800 C 169.820 338.800,170.000 339.160,170.000 339.600 C 170.000 340.040,170.180 340.400,170.400 340.400 C 170.620 340.400,170.800 340.584,170.800 340.809 C 170.800 341.033,171.790 342.207,173.000 343.417 C 174.210 344.627,175.200 345.793,175.200 346.009 C 175.200 346.224,175.481 346.400,175.824 346.400 C 176.167 346.400,176.336 346.580,176.200 346.800 C 176.064 347.020,176.263 347.200,176.643 347.200 C 177.023 347.200,177.222 347.311,177.086 347.448 C 176.731 347.803,177.826 348.800,178.571 348.800 C 178.917 348.800,179.200 348.980,179.200 349.200 C 179.200 349.420,179.560 349.600,180.000 349.600 C 180.440 349.600,180.800 349.780,180.800 350.000 C 180.800 350.220,181.149 350.400,181.576 350.400 C 182.003 350.400,182.464 350.580,182.600 350.800 C 182.736 351.020,183.456 351.200,184.200 351.200 C 184.944 351.200,185.664 351.380,185.800 351.600 C 186.139 352.149,215.200 352.149,215.200 351.600 C 215.200 351.380,216.100 351.200,217.200 351.200 C 218.300 351.200,219.200 351.020,219.200 350.800 C 219.200 350.580,219.560 350.400,220.000 350.400 C 220.440 350.400,220.800 350.220,220.800 350.000 C 220.800 349.780,221.117 349.600,221.504 349.600 C 221.891 349.600,222.432 349.240,222.707 348.800 C 222.982 348.360,223.595 348.000,224.070 348.000 C 224.545 348.000,224.823 347.890,224.689 347.756 C 224.555 347.621,225.515 346.461,226.822 345.178 C 228.130 343.894,229.200 342.604,229.200 342.310 C 229.200 342.017,229.560 341.517,230.000 341.200 C 230.440 340.883,230.800 340.393,230.800 340.112 C 230.800 339.830,230.980 339.600,231.200 339.600 C 231.420 339.600,231.600 339.240,231.600 338.800 C 231.600 338.360,231.780 338.000,232.000 338.000 C 232.220 338.000,232.400 337.280,232.400 336.400 C 232.400 335.520,232.580 334.800,232.800 334.800 C 233.056 334.800,233.200 331.275,233.200 325.024 C 233.200 318.937,233.351 315.154,233.600 315.000 C 233.820 314.864,234.000 314.313,234.000 313.776 C 234.000 313.239,234.180 312.800,234.400 312.800 C 234.620 312.800,234.800 312.440,234.800 312.000 C 234.800 311.560,234.980 311.200,235.200 311.200 C 235.420 311.200,235.600 310.880,235.600 310.488 C 235.600 310.097,235.960 309.517,236.400 309.200 C 236.840 308.883,237.200 308.325,237.200 307.961 C 237.200 307.108,238.231 306.250,238.933 306.519 C 239.231 306.633,239.724 306.384,240.026 305.964 C 240.329 305.544,240.807 305.200,241.088 305.200 C 241.370 305.200,241.600 304.918,241.600 304.573 C 241.600 304.128,241.832 304.020,242.400 304.200 C 242.859 304.346,243.200 304.272,243.200 304.027 C 243.200 303.792,243.740 303.600,244.400 303.600 C 245.060 303.600,245.600 303.420,245.600 303.200 C 245.600 302.960,247.200 302.800,249.600 302.800 C 252.000 302.800,253.600 302.960,253.600 303.200 C 253.600 303.420,254.140 303.600,254.800 303.600 C 255.460 303.600,256.000 303.776,256.000 303.990 C 256.000 304.206,256.511 304.278,257.143 304.151 C 258.081 303.964,258.327 304.079,258.514 304.791 C 258.638 305.269,259.114 305.757,259.570 305.876 C 260.027 305.996,260.400 306.252,260.400 306.447 C 260.400 306.641,260.625 306.755,260.900 306.700 C 261.175 306.645,261.355 306.825,261.300 307.100 C 261.245 307.375,261.335 307.555,261.500 307.501 C 261.665 307.446,264.092 309.696,266.894 312.501 C 269.696 315.305,272.260 317.600,272.591 317.600 C 272.922 317.600,273.418 317.960,273.693 318.400 C 273.968 318.840,274.509 319.200,274.896 319.200 C 275.283 319.200,275.600 319.380,275.600 319.600 C 275.600 319.820,276.050 320.000,276.600 320.000 C 277.150 320.000,277.600 320.180,277.600 320.400 C 277.600 320.620,278.320 320.800,279.200 320.800 C 280.080 320.800,280.800 320.980,280.800 321.200 C 280.800 321.717,287.886 321.735,288.067 321.218 C 288.140 321.007,288.875 320.790,289.700 320.736 C 290.525 320.681,291.200 320.493,291.200 320.318 C 291.200 320.143,291.470 320.000,291.800 320.000 C 292.130 320.000,292.400 319.820,292.400 319.600 C 292.400 319.380,292.760 319.200,293.200 319.200 C 293.640 319.200,294.000 319.020,294.000 318.800 C 294.000 318.580,294.288 318.400,294.640 318.400 C 294.991 318.400,295.783 317.860,296.400 317.200 C 297.017 316.540,297.723 316.000,297.971 316.000 C 298.601 316.000,318.400 296.127,318.400 295.494 C 318.400 295.209,318.760 294.717,319.200 294.400 C 319.640 294.083,320.000 293.503,320.000 293.112 C 320.000 292.720,320.180 292.400,320.400 292.400 C 320.620 292.400,320.800 292.130,320.800 291.800 C 320.800 291.470,320.980 291.200,321.200 291.200 C 321.420 291.200,321.600 290.671,321.600 290.024 C 321.600 289.377,321.780 288.736,322.000 288.600 C 322.233 288.456,322.400 286.204,322.400 283.200 C 322.400 280.196,322.233 277.944,322.000 277.800 C 321.780 277.664,321.600 277.113,321.600 276.576 C 321.600 276.039,321.465 275.599,321.300 275.597 C 320.983 275.594,320.000 273.691,320.000 273.081 C 320.000 272.883,319.460 272.217,318.800 271.600 C 318.140 270.983,317.600 270.277,317.600 270.031 C 317.600 269.420,313.340 265.200,312.724 265.200 C 312.452 265.200,311.248 264.165,310.048 262.900 C 308.849 261.635,307.694 260.653,307.482 260.717 C 307.271 260.781,307.196 260.459,307.316 260.000 C 307.461 259.444,307.278 259.006,306.767 258.687 C 306.345 258.423,306.000 257.891,306.000 257.504 C 306.000 257.117,305.820 256.800,305.600 256.800 C 305.380 256.800,305.200 256.440,305.200 256.000 C 305.200 255.528,304.933 255.200,304.550 255.200 C 304.041 255.200,303.952 254.939,304.140 254.000 C 304.275 253.323,304.210 252.800,303.990 252.800 C 303.766 252.800,303.600 251.272,303.600 249.200 C 303.600 247.128,303.766 245.600,303.990 245.600 C 304.210 245.600,304.275 245.077,304.140 244.400 C 303.952 243.461,304.041 243.200,304.550 243.200 C 304.973 243.200,305.200 242.858,305.200 242.223 C 305.200 241.685,305.515 241.010,305.900 240.723 C 306.285 240.435,306.600 239.840,306.600 239.400 C 306.600 238.960,306.825 238.645,307.100 238.700 C 307.375 238.755,307.558 238.665,307.506 238.500 C 307.364 238.050,309.893 235.600,310.498 235.600 C 310.787 235.600,311.283 235.240,311.600 234.800 C 311.939 234.330,312.635 234.000,313.288 234.000 C 313.900 234.000,314.400 233.820,314.400 233.600 C 314.400 233.380,315.019 233.200,315.776 233.200 C 316.533 233.200,317.264 233.020,317.400 232.800 C 317.553 232.552,321.204 232.400,327.024 232.400 C 333.008 232.400,336.400 232.255,336.400 232.000 C 336.400 231.780,336.839 231.600,337.376 231.600 C 337.913 231.600,338.464 231.420,338.600 231.200 C 338.736 230.980,339.197 230.800,339.624 230.800 C 340.051 230.800,340.400 230.620,340.400 230.400 C 340.400 230.180,340.630 230.000,340.912 230.000 C 341.193 230.000,341.683 229.640,342.000 229.200 C 342.317 228.760,342.812 228.400,343.099 228.400 C 343.840 228.400,347.200 224.948,347.200 224.187 C 347.200 223.838,347.353 223.647,347.540 223.763 C 347.949 224.016,350.400 219.391,350.400 218.367 C 350.400 217.971,350.580 217.536,350.800 217.400 C 351.057 217.241,351.200 211.004,351.200 200.000 C 351.200 188.996,351.057 182.759,350.800 182.600 C 350.580 182.464,350.400 182.029,350.400 181.633 C 350.400 180.609,347.949 175.984,347.540 176.237 C 347.353 176.353,347.200 176.162,347.200 175.813 C 347.200 175.052,343.840 171.600,343.099 171.600 C 342.812 171.600,342.317 171.240,342.000 170.800 C 341.683 170.360,341.193 170.000,340.912 170.000 C 340.630 170.000,340.400 169.820,340.400 169.600 C 340.400 169.380,340.051 169.200,339.624 169.200 C 339.197 169.200,338.736 169.020,338.600 168.800 C 338.464 168.580,337.913 168.400,337.376 168.400 C 336.839 168.400,336.400 168.220,336.400 168.000 C 336.400 167.745,333.008 167.600,327.024 167.600 C 321.204 167.600,317.553 167.448,317.400 167.200 C 317.264 166.980,316.533 166.800,315.776 166.800 C 315.019 166.800,314.400 166.620,314.400 166.400 C 314.400 166.180,314.040 166.000,313.600 166.000 C 313.160 166.000,312.800 165.820,312.800 165.600 C 312.800 165.380,312.440 165.200,312.000 165.200 C 311.560 165.200,311.200 165.020,311.200 164.800 C 311.200 164.580,310.924 164.400,310.587 164.400 C 309.917 164.400,307.353 161.986,307.506 161.500 C 307.558 161.335,307.375 161.245,307.100 161.300 C 306.825 161.355,306.600 161.040,306.600 160.600 C 306.600 160.160,306.285 159.451,305.900 159.025 C 305.515 158.598,305.200 157.923,305.200 157.525 C 305.200 157.121,304.911 156.800,304.547 156.800 C 304.017 156.800,303.935 156.501,304.109 155.200 C 304.227 154.320,304.161 153.600,303.962 153.600 C 303.763 153.600,303.600 152.340,303.600 150.800 C 303.600 149.248,303.774 148.000,303.990 148.000 C 304.210 148.000,304.275 147.477,304.140 146.800 C 303.952 145.861,304.041 145.600,304.550 145.600 C 305.006 145.600,305.200 145.241,305.200 144.400 C 305.200 143.740,305.380 143.200,305.600 143.200 C 305.820 143.200,306.000 142.925,306.000 142.588 C 306.000 142.251,306.630 141.422,307.400 140.746 C 308.170 140.070,308.800 139.236,308.800 138.892 C 308.800 138.548,308.901 138.368,309.024 138.491 C 309.311 138.777,319.200 128.965,319.200 128.394 C 319.200 128.159,319.560 127.580,320.000 127.108 C 320.440 126.636,320.800 126.013,320.800 125.725 C 320.800 125.436,320.980 125.200,321.200 125.200 C 321.420 125.200,321.600 124.750,321.600 124.200 C 321.600 123.650,321.743 123.200,321.918 123.200 C 322.093 123.200,322.282 122.525,322.337 121.701 C 322.393 120.876,322.610 120.030,322.819 119.821 C 323.301 119.339,323.322 114.123,322.844 113.827 C 322.649 113.706,322.387 113.021,322.263 112.304 C 321.743 109.290,321.490 108.400,321.155 108.400 C 320.960 108.400,320.800 108.164,320.800 107.875 C 320.800 107.587,320.440 106.964,320.000 106.492 C 319.560 106.020,319.200 105.444,319.200 105.212 C 319.200 104.643,298.540 84.000,297.971 84.000 C 297.723 84.000,297.017 83.460,296.400 82.800 C 295.783 82.140,294.991 81.600,294.640 81.600 C 294.288 81.600,294.000 81.420,294.000 81.200 C 294.000 80.980,293.640 80.800,293.200 80.800 C 292.760 80.800,292.400 80.620,292.400 80.400 C 292.400 80.180,292.130 80.000,291.800 80.000 C 291.470 80.000,291.200 79.854,291.200 79.675 C 291.200 79.496,290.349 79.305,289.309 79.252 C 288.269 79.198,287.324 79.013,287.209 78.840 C 286.876 78.342,281.600 78.278,281.600 78.772 C 281.600 79.019,280.753 79.200,279.600 79.200 C 278.500 79.200,277.600 79.346,277.600 79.525 C 277.600 79.704,276.970 80.098,276.200 80.400 C 275.430 80.702,274.800 81.096,274.800 81.275 C 274.800 81.454,274.557 81.600,274.259 81.600 C 273.962 81.600,273.154 82.140,272.463 82.800 C 271.772 83.460,271.022 84.000,270.796 84.000 C 270.570 84.000,268.454 85.935,266.093 88.299 C 263.732 90.664,261.665 92.554,261.500 92.499 C 261.335 92.445,261.245 92.535,261.300 92.700 C 261.355 92.865,261.251 93.033,261.070 93.074 C 260.888 93.114,260.417 93.519,260.023 93.974 C 259.629 94.428,259.102 94.800,258.853 94.800 C 258.604 94.800,258.400 95.082,258.400 95.427 C 258.400 95.872,258.168 95.980,257.600 95.800 C 257.160 95.660,256.799 95.693,256.797 95.873 C 256.795 96.053,256.309 96.425,255.717 96.700 C 254.401 97.311,245.600 97.398,245.600 96.800 C 245.600 96.580,245.060 96.400,244.400 96.400 C 243.740 96.400,243.200 96.208,243.200 95.973 C 243.200 95.728,242.859 95.654,242.400 95.800 C 241.832 95.980,241.600 95.872,241.600 95.427 C 241.600 95.082,241.370 94.800,241.088 94.800 C 240.807 94.800,240.329 94.456,240.026 94.036 C 239.724 93.616,239.231 93.367,238.933 93.481 C 238.231 93.750,237.200 92.892,237.200 92.039 C 237.200 91.675,236.840 91.117,236.400 90.800 C 235.960 90.483,235.600 89.903,235.600 89.512 C 235.600 89.120,235.420 88.800,235.200 88.800 C 234.980 88.800,234.800 88.440,234.800 88.000 C 234.800 87.560,234.620 87.200,234.400 87.200 C 234.180 87.200,234.000 86.401,234.000 85.424 C 234.000 84.447,233.820 83.536,233.600 83.400 C 233.352 83.247,233.200 79.670,233.200 74.000 C 233.200 68.330,233.048 64.753,232.800 64.600 C 232.580 64.464,232.400 63.823,232.400 63.176 C 232.400 62.529,232.220 62.000,232.000 62.000 C 231.780 62.000,231.600 61.640,231.600 61.200 C 231.600 60.760,231.420 60.400,231.200 60.400 C 230.980 60.400,230.800 60.130,230.800 59.800 C 230.800 59.470,230.620 59.200,230.400 59.200 C 230.180 59.200,230.000 58.921,230.000 58.581 C 230.000 58.240,228.751 56.729,227.224 55.224 C 225.697 53.718,224.557 52.376,224.691 52.243 C 224.824 52.109,224.545 52.000,224.070 52.000 C 223.595 52.000,222.982 51.640,222.707 51.200 C 222.432 50.760,221.891 50.400,221.504 50.400 C 221.117 50.400,220.800 50.220,220.800 50.000 C 220.800 49.780,220.260 49.600,219.600 49.600 C 218.940 49.600,218.400 49.420,218.400 49.200 C 218.400 48.980,217.680 48.800,216.800 48.800 C 215.920 48.800,215.200 48.620,215.200 48.400 C 215.200 48.141,210.133 48.000,200.800 48.000 C 191.467 48.000,186.400 48.141,186.400 48.400 M209.000 140.000 C 209.136 140.220,210.227 140.400,211.424 140.400 C 212.621 140.400,213.600 140.557,213.600 140.748 C 213.600 140.940,214.860 141.221,216.400 141.373 C 217.940 141.524,219.200 141.818,219.200 142.024 C 219.200 142.231,219.740 142.400,220.400 142.400 C 221.060 142.400,221.600 142.580,221.600 142.800 C 221.600 143.020,222.140 143.200,222.800 143.200 C 223.460 143.200,224.000 143.380,224.000 143.600 C 224.000 143.820,224.270 144.000,224.600 144.000 C 224.930 144.000,225.200 144.180,225.200 144.400 C 225.200 144.620,225.560 144.800,226.000 144.800 C 226.440 144.800,226.800 144.980,226.800 145.200 C 226.800 145.420,227.160 145.600,227.600 145.600 C 228.040 145.600,228.400 145.780,228.400 146.000 C 228.400 146.220,228.760 146.400,229.200 146.400 C 229.640 146.400,230.000 146.580,230.000 146.800 C 230.000 147.020,230.360 147.200,230.800 147.200 C 231.240 147.200,231.600 147.380,231.600 147.600 C 231.600 147.820,231.920 148.000,232.312 148.000 C 232.703 148.000,233.283 148.360,233.600 148.800 C 233.917 149.240,234.457 149.600,234.800 149.600 C 235.143 149.600,235.683 149.960,236.000 150.400 C 236.317 150.840,236.821 151.200,237.120 151.200 C 237.418 151.200,238.376 151.942,239.248 152.850 C 240.120 153.757,240.920 154.413,241.026 154.307 C 241.295 154.038,246.400 159.093,246.400 159.628 C 246.400 159.867,247.120 160.754,248.000 161.600 C 248.880 162.446,249.600 163.382,249.600 163.680 C 249.600 163.979,249.960 164.483,250.400 164.800 C 250.840 165.117,251.200 165.678,251.200 166.046 C 251.200 166.413,251.450 166.810,251.756 166.928 C 252.363 167.161,253.600 169.398,253.600 170.261 C 253.600 170.558,253.780 170.800,254.000 170.800 C 254.220 170.800,254.400 171.160,254.400 171.600 C 254.400 172.040,254.580 172.400,254.800 172.400 C 255.020 172.400,255.200 172.760,255.200 173.200 C 255.200 173.640,255.380 174.000,255.600 174.000 C 255.820 174.000,256.000 174.270,256.000 174.600 C 256.000 174.930,256.180 175.200,256.400 175.200 C 256.620 175.200,256.800 175.560,256.800 176.000 C 256.800 176.440,256.980 176.800,257.200 176.800 C 257.420 176.800,257.600 177.340,257.600 178.000 C 257.600 178.660,257.766 179.200,257.968 179.200 C 258.171 179.200,258.465 180.415,258.621 181.900 C 258.778 183.385,259.054 184.695,259.235 184.812 C 259.415 184.929,259.608 185.694,259.663 186.512 C 259.718 187.330,259.907 188.000,260.082 188.000 C 260.257 188.000,260.400 188.990,260.400 190.200 C 260.400 191.410,260.580 192.400,260.800 192.400 C 261.053 192.400,261.200 195.200,261.200 200.000 C 261.200 204.800,261.053 207.600,260.800 207.600 C 260.580 207.600,260.400 208.590,260.400 209.800 C 260.400 211.010,260.257 212.000,260.082 212.000 C 259.907 212.000,259.718 212.670,259.663 213.488 C 259.608 214.306,259.415 215.071,259.235 215.188 C 259.054 215.305,258.778 216.615,258.621 218.100 C 258.465 219.585,258.171 220.800,257.968 220.800 C 257.766 220.800,257.600 221.340,257.600 222.000 C 257.600 222.660,257.420 223.200,257.200 223.200 C 256.980 223.200,256.800 223.560,256.800 224.000 C 256.800 224.440,256.620 224.800,256.400 224.800 C 256.180 224.800,256.000 225.070,256.000 225.400 C 256.000 225.730,255.820 226.000,255.600 226.000 C 255.380 226.000,255.200 226.360,255.200 226.800 C 255.200 227.240,255.020 227.600,254.800 227.600 C 254.580 227.600,254.400 227.960,254.400 228.400 C 254.400 228.840,254.220 229.200,254.000 229.200 C 253.780 229.200,253.600 229.442,253.600 229.739 C 253.600 230.602,252.363 232.839,251.756 233.072 C 251.450 233.190,251.200 233.587,251.200 233.954 C 251.200 234.322,250.840 234.883,250.400 235.200 C 249.960 235.517,249.600 236.021,249.600 236.320 C 249.600 236.618,248.880 237.554,248.000 238.400 C 247.120 239.246,246.400 240.133,246.400 240.372 C 246.400 240.907,241.295 245.962,241.026 245.693 C 240.920 245.587,240.120 246.243,239.248 247.150 C 238.376 248.058,237.418 248.800,237.120 248.800 C 236.821 248.800,236.317 249.160,236.000 249.600 C 235.683 250.040,235.143 250.400,234.800 250.400 C 234.457 250.400,233.917 250.760,233.600 251.200 C 233.283 251.640,232.703 252.000,232.312 252.000 C 231.920 252.000,231.600 252.180,231.600 252.400 C 231.600 252.620,231.240 252.800,230.800 252.800 C 230.360 252.800,230.000 252.980,230.000 253.200 C 230.000 253.420,229.640 253.600,229.200 253.600 C 228.760 253.600,228.400 253.780,228.400 254.000 C 228.400 254.220,228.040 254.400,227.600 254.400 C 227.160 254.400,226.800 254.580,226.800 254.800 C 226.800 255.020,226.440 255.200,226.000 255.200 C 225.560 255.200,225.200 255.380,225.200 255.600 C 225.200 255.820,224.930 256.000,224.600 256.000 C 224.270 256.000,224.000 256.180,224.000 256.400 C 224.000 256.620,223.460 256.800,222.800 256.800 C 222.140 256.800,221.600 256.980,221.600 257.200 C 221.600 257.420,221.060 257.600,220.400 257.600 C 219.740 257.600,219.200 257.769,219.200 257.976 C 219.200 258.182,217.940 258.476,216.400 258.627 C 214.860 258.779,213.600 259.060,213.600 259.252 C 213.600 259.443,212.621 259.600,211.424 259.600 C 210.227 259.600,209.136 259.780,209.000 260.000 C 208.848 260.247,205.463 260.400,200.176 260.400 C 194.725 260.400,191.600 260.254,191.600 260.000 C 191.600 259.780,190.689 259.600,189.576 259.600 C 188.463 259.600,187.653 259.439,187.774 259.241 C 187.896 259.044,186.557 258.756,184.798 258.600 C 183.039 258.444,181.600 258.155,181.600 257.958 C 181.600 257.761,181.060 257.600,180.400 257.600 C 179.740 257.600,179.200 257.420,179.200 257.200 C 179.200 256.980,178.840 256.800,178.400 256.800 C 177.960 256.800,177.600 256.620,177.600 256.400 C 177.600 256.180,177.060 256.000,176.400 256.000 C 175.740 256.000,175.200 255.820,175.200 255.600 C 175.200 255.380,174.930 255.200,174.600 255.200 C 174.270 255.200,174.000 255.020,174.000 254.800 C 174.000 254.580,173.640 254.400,173.200 254.400 C 172.760 254.400,172.400 254.220,172.400 254.000 C 172.400 253.780,172.040 253.600,171.600 253.600 C 171.160 253.600,170.800 253.448,170.800 253.263 C 170.800 253.077,169.945 252.496,168.900 251.970 C 167.855 251.444,166.709 250.696,166.353 250.307 C 165.997 249.918,165.433 249.600,165.098 249.600 C 164.764 249.600,164.065 249.062,163.545 248.404 C 163.025 247.746,162.369 247.206,162.086 247.204 C 161.497 247.199,153.600 239.292,153.600 238.707 C 153.600 238.495,153.060 237.817,152.400 237.200 C 151.740 236.583,151.200 235.831,151.200 235.528 C 151.200 235.225,150.840 234.717,150.400 234.400 C 149.960 234.083,149.600 233.615,149.600 233.361 C 149.600 233.106,149.334 232.677,149.008 232.407 C 148.307 231.824,147.200 229.702,147.200 228.939 C 147.200 228.642,147.020 228.400,146.800 228.400 C 146.580 228.400,146.400 228.040,146.400 227.600 C 146.400 227.160,146.220 226.800,146.000 226.800 C 145.780 226.800,145.600 226.440,145.600 226.000 C 145.600 225.560,145.420 225.200,145.200 225.200 C 144.980 225.200,144.800 224.930,144.800 224.600 C 144.800 224.270,144.620 224.000,144.400 224.000 C 144.180 224.000,144.000 223.460,144.000 222.800 C 144.000 222.140,143.820 221.600,143.600 221.600 C 143.380 221.600,143.200 221.060,143.200 220.400 C 143.200 219.740,143.020 219.200,142.800 219.200 C 142.580 219.200,142.400 218.660,142.400 218.000 C 142.400 217.340,142.236 216.800,142.036 216.800 C 141.836 216.800,141.544 215.267,141.388 213.394 C 141.232 211.521,140.946 209.890,140.752 209.770 C 140.558 209.651,140.400 207.673,140.400 205.376 C 140.400 202.859,140.241 201.200,140.000 201.200 C 139.780 201.200,139.600 200.660,139.600 200.000 C 139.600 199.340,139.780 198.800,140.000 198.800 C 140.241 198.800,140.400 197.141,140.400 194.624 C 140.400 192.327,140.558 190.349,140.752 190.230 C 140.946 190.110,141.232 188.479,141.388 186.606 C 141.544 184.733,141.836 183.200,142.036 183.200 C 142.236 183.200,142.400 182.660,142.400 182.000 C 142.400 181.340,142.580 180.800,142.800 180.800 C 143.020 180.800,143.200 180.260,143.200 179.600 C 143.200 178.940,143.380 178.400,143.600 178.400 C 143.820 178.400,144.000 177.860,144.000 177.200 C 144.000 176.540,144.180 176.000,144.400 176.000 C 144.620 176.000,144.800 175.730,144.800 175.400 C 144.800 175.070,144.980 174.800,145.200 174.800 C 145.420 174.800,145.600 174.440,145.600 174.000 C 145.600 173.560,145.780 173.200,146.000 173.200 C 146.220 173.200,146.400 172.840,146.400 172.400 C 146.400 171.960,146.580 171.600,146.800 171.600 C 147.020 171.600,147.200 171.358,147.200 171.061 C 147.200 170.298,148.307 168.176,149.008 167.593 C 149.334 167.323,149.600 166.894,149.600 166.639 C 149.600 166.385,149.960 165.917,150.400 165.600 C 150.840 165.283,151.200 164.775,151.200 164.472 C 151.200 164.169,151.740 163.417,152.400 162.800 C 153.060 162.183,153.600 161.505,153.600 161.293 C 153.600 160.708,161.497 152.801,162.086 152.796 C 162.369 152.794,163.025 152.254,163.545 151.596 C 164.065 150.938,164.764 150.400,165.098 150.400 C 165.433 150.400,165.997 150.076,166.353 149.680 C 166.709 149.283,167.667 148.649,168.481 148.270 C 169.296 147.890,170.203 147.360,170.497 147.090 C 171.340 146.317,172.733 145.600,173.395 145.600 C 173.728 145.600,174.000 145.420,174.000 145.200 C 174.000 144.980,174.270 144.800,174.600 144.800 C 174.930 144.800,175.200 144.620,175.200 144.400 C 175.200 144.180,175.740 144.000,176.400 144.000 C 177.060 144.000,177.600 143.820,177.600 143.600 C 177.600 143.380,177.960 143.200,178.400 143.200 C 178.840 143.200,179.200 143.020,179.200 142.800 C 179.200 142.580,179.740 142.400,180.400 142.400 C 181.060 142.400,181.600 142.239,181.600 142.042 C 181.600 141.845,183.039 141.556,184.798 141.400 C 186.557 141.244,187.896 140.956,187.774 140.759 C 187.653 140.561,188.463 140.400,189.576 140.400 C 190.689 140.400,191.600 140.220,191.600 140.000 C 191.600 139.746,194.725 139.600,200.176 139.600 C 205.463 139.600,208.848 139.753,209.000 140.000 " stroke="none" fill="#646464" fill-rule="evenodd"></path><path id="path1" d="M304.093 155.600 C 304.093 156.370,304.175 156.685,304.276 156.300 C 304.376 155.915,304.376 155.285,304.276 154.900 C 304.175 154.515,304.093 154.830,304.093 155.600 M306.432 160.438 C 306.414 160.789,306.805 161.419,307.300 161.838 C 308.192 162.594,308.194 162.593,307.552 161.800 C 307.196 161.360,306.805 160.730,306.684 160.400 C 306.497 159.891,306.458 159.896,306.432 160.438 M307.021 238.377 C 306.634 238.804,306.412 239.389,306.527 239.677 C 306.689 240.080,306.744 240.069,306.768 239.631 C 306.786 239.319,307.098 238.734,307.462 238.331 C 307.826 237.929,308.034 237.600,307.924 237.600 C 307.814 237.600,307.408 237.950,307.021 238.377 " stroke="none" fill="#686464" fill-rule="evenodd"></path><path id="path2" d="M304.093 155.600 C 304.093 156.370,304.175 156.685,304.276 156.300 C 304.376 155.915,304.376 155.285,304.276 154.900 C 304.175 154.515,304.093 154.830,304.093 155.600 M306.432 160.438 C 306.414 160.789,306.805 161.419,307.300 161.838 C 308.192 162.594,308.194 162.593,307.552 161.800 C 307.196 161.360,306.805 160.730,306.684 160.400 C 306.497 159.891,306.458 159.896,306.432 160.438 M307.021 238.377 C 306.634 238.804,306.412 239.389,306.527 239.677 C 306.689 240.080,306.744 240.069,306.768 239.631 C 306.786 239.319,307.098 238.734,307.462 238.331 C 307.826 237.929,308.034 237.600,307.924 237.600 C 307.814 237.600,307.408 237.950,307.021 238.377 " stroke="none" fill="#686464" fill-rule="evenodd"></path><path id="path3" d="M304.093 155.600 C 304.093 156.370,304.175 156.685,304.276 156.300 C 304.376 155.915,304.376 155.285,304.276 154.900 C 304.175 154.515,304.093 154.830,304.093 155.600 M306.432 160.438 C 306.414 160.789,306.805 161.419,307.300 161.838 C 308.192 162.594,308.194 162.593,307.552 161.800 C 307.196 161.360,306.805 160.730,306.684 160.400 C 306.497 159.891,306.458 159.896,306.432 160.438 M307.021 238.377 C 306.634 238.804,306.412 239.389,306.527 239.677 C 306.689 240.080,306.744 240.069,306.768 239.631 C 306.786 239.319,307.098 238.734,307.462 238.331 C 307.826 237.929,308.034 237.600,307.924 237.600 C 307.814 237.600,307.408 237.950,307.021 238.377 " stroke="none" fill="#686464" fill-rule="evenodd"></path><path id="path4" d="M304.093 155.600 C 304.093 156.370,304.175 156.685,304.276 156.300 C 304.376 155.915,304.376 155.285,304.276 154.900 C 304.175 154.515,304.093 154.830,304.093 155.600 M306.432 160.438 C 306.414 160.789,306.805 161.419,307.300 161.838 C 308.192 162.594,308.194 162.593,307.552 161.800 C 307.196 161.360,306.805 160.730,306.684 160.400 C 306.497 159.891,306.458 159.896,306.432 160.438 M307.021 238.377 C 306.634 238.804,306.412 239.389,306.527 239.677 C 306.689 240.080,306.744 240.069,306.768 239.631 C 306.786 239.319,307.098 238.734,307.462 238.331 C 307.826 237.929,308.034 237.600,307.924 237.600 C 307.814 237.600,307.408 237.950,307.021 238.377 " stroke="none" fill="#686464" fill-rule="evenodd"></path></g></svg>